<?xml version="1.0" standalone="no"?>
<!DOCTYPE svg PUBLIC "-//W3C//DTD SVG 20010904//EN"
 "http://www.w3.org/TR/2001/REC-SVG-20010904/DTD/svg10.dtd">
<svg version="1.0" xmlns="http://www.w3.org/2000/svg"
 width="128.000000pt" height="128.000000pt" viewBox="0 0 128.000000 128.000000"
 preserveAspectRatio="xMidYMid meet">

<g transform="translate(0.000000,128.000000) scale(0.100000,-0.100000)"
fill="#000000" stroke="none">
<path d="M231 1240 c-49 -12 -84 -42 -100 -86 -23 -65 -9 -108 61 -180 49 -51
59 -67 56 -91 -3 -25 -8 -28 -41 -31 -38 -3 -38 -3 -31 -40 8 -46 5 -43 52
-49 56 -8 110 13 133 51 26 43 24 86 -8 151 -31 63 -25 88 21 93 26 3 26 4 26
91 l0 88 -46 7 c-56 7 -78 7 -123 -4z"/>
<path d="M567 1237 c-48 -15 -102 -68 -119 -115 -7 -21 -13 -71 -13 -112 0
-62 5 -85 28 -133 39 -79 88 -112 168 -112 42 0 55 -3 48 -11 -6 -8 -1 -22 16
-43 25 -29 28 -30 54 -17 29 16 59 46 45 46 -5 0 -22 11 -38 24 l-30 23 35 35
c101 101 87 328 -25 398 -43 26 -118 34 -169 17z m103 -202 c7 -9 15 -37 17
-63 8 -93 -57 -160 -91 -93 -21 41 -21 129 1 153 20 22 56 23 73 3z"/>
<path d="M854 1215 c3 -8 8 -102 11 -208 4 -105 8 -202 11 -214 4 -22 8 -23
134 -23 l130 0 6 28 c3 15 8 34 10 42 3 12 -7 14 -57 12 l-60 -4 6 144 c3 78
8 164 11 191 l5 47 -107 0 c-91 0 -105 -2 -100 -15z"/>
<path d="M666 493 c-17 -5 -18 -12 -12 -96 3 -49 6 -105 6 -124 0 -33 1 -33
45 -33 41 0 45 2 45 24 0 19 7 26 30 31 41 9 70 49 70 97 0 22 -4 47 -10 57
-19 36 -112 60 -174 44z m121 -109 c7 -18 -7 -46 -25 -52 -8 -2 -12 9 -12 32
0 38 25 51 37 20z"/>
<path d="M1071 493 c-24 -5 -24 -6 -17 -95 3 -50 6 -106 6 -125 0 -33 1 -33
45 -33 44 0 45 1 45 32 l0 33 26 -37 c26 -36 26 -36 54 -20 l29 17 -24 25 -24
25 25 28 c28 32 32 82 9 114 -24 35 -99 50 -174 36z m114 -123 c0 -16 -6 -26
-17 -28 -14 -3 -18 3 -18 28 0 25 4 31 18 28 11 -2 17 -12 17 -28z"/>
<path d="M34 398 c3 -50 6 -106 6 -125 0 -33 1 -33 45 -33 l45 0 1 43 c0 23 3
36 6 30 2 -7 13 -13 24 -13 14 0 19 -7 19 -30 0 -28 2 -30 40 -30 l40 0 0 79
c0 43 3 99 6 125 l7 46 -52 0 -51 0 0 -75 c0 -70 -1 -75 -21 -75 -20 0 -21 3
-14 75 l7 75 -58 0 -57 0 7 -92z"/>
<path d="M290 448 c0 -24 3 -80 7 -125 l6 -83 67 0 c53 0 69 4 74 16 9 23 8
24 -24 24 -23 0 -30 4 -30 20 0 14 7 20 24 20 15 0 26 7 29 20 4 17 0 20 -24
20 -19 0 -29 5 -29 15 0 10 10 15 30 15 29 0 30 1 30 50 l0 50 -80 0 -80 0 0
-42z"/>
<path d="M474 413 c3 -42 6 -98 6 -125 l0 -49 72 3 c60 2 73 6 76 21 3 13 -3
17 -29 17 l-32 0 6 105 6 105 -56 0 -56 0 7 -77z"/>
<path d="M870 448 c0 -24 3 -80 7 -125 l6 -83 67 0 c53 0 69 4 74 16 9 23 8
24 -24 24 -23 0 -30 4 -30 20 0 14 7 20 24 20 15 0 26 7 29 20 4 17 0 20 -24
20 -19 0 -29 5 -29 15 0 10 10 15 30 15 29 0 30 1 30 50 l0 50 -80 0 -80 0 0
-42z"/>
</g>
</svg>
